<?xml version="1.0" encoding="UTF-8"?>
<svg id="Camada_1" data-name="Camada 1" xmlns="http://www.w3.org/2000/svg" viewBox="0 0 543.98 429.74">
  <defs>
    <style>
      .cls-1 {
        fill: #bc941a;
      }

      .cls-2 {
        fill: #247d7f;
      }

      .cls-3 {
        fill: #bc9418;
      }
    </style>
  </defs>
  <g>
    <path class="cls-1" d="M308.73,126.7l3.68-10.98,18-55.23.25.7.12-.36,22.56,60.87c2.3-.47,4.6-.94,6.91-1.47,8.36-2.45,16.41-4.38,24.18-5.89-9.48-24.68-18.64-48.6-25.47-66.44-6.43-16.79-10.97-28.67-12.12-31.58-5.37-13.26-7.43-16.3-11-16.3-.09,0-.29,0-.38.02h-.06c-3.09.32-5.41,2.9-10.27,16.73l-40.44,109.05c7.9.74,15.92,1.04,24.06.9ZM328.99,54.34l2.29-.91h0l-2.41,1.26c.04-.12.09-.23.13-.35Z"/>
    <path class="cls-1" d="M273.54,178.56c-2.67-.38-5.31-.83-7.94-1.33l-11.04,29.76-13.51-36.43c-10.96-3.89-21.36-8.88-30.99-14.98l2.9,8.66h.02l20.03,59.1c.55,1.65,1.05,3.21,1.51,4.72l.37,1.2c.4,1.34.77,2.6,1.11,3.83l.2.6,3.17-.85-3.06,1.17,2.57,7.68,2.3-.31h0s-2.18.66-2.18.66l1.54,4.62c.28.07.55.16.85.16h26.36c.3,0,.57-.09.85-.16l1.54-4.62-2.18-.66h0s2.3.31,2.3.31l2.57-7.68-3.06-1.17,3.17.85.2-.6c.34-1.23.7-2.49,1.11-3.83l.37-1.2c.47-1.5.96-3.07,1.51-4.72l14.66-43.27c-5.82-.26-11.59-.71-17.23-1.51Z"/>
    <path class="cls-1" d="M178.46,61.19l.25-.7,9.13,28.02c.47.29.95.63,1.42,1.06.12.11,10,8.83,28.33,17.76l-33.59-90.57C179.14,2.92,176.81.34,173.73.02h-.06s0,0,0,0c-.09,0-.29-.02-.38-.02-3.57,0-5.63,3.04-11,16.3-1.15,2.91-5.69,14.79-12.12,31.58-17.28,45.16-49.44,129.22-64.21,166.01l-7.47,18.29c-.39.92-.78,1.8-1.24,2.83-.4.89-.79,1.72-1.19,2.53l-.32.65c-.29.57-.57,1.12-.93,1.79l-.23.44c-.25.45-.5.86-.8,1.37-.61,1.02-.63,2.29-.05,3.33.59,1.04,1.69,1.68,2.88,1.68h31.86c.35,0,.69-.06,1.01-.16L178.34,60.82l.12.36ZM177.84,53.43l2.29.91c.04.12.08.23.13.35l-2.41-1.26h0Z"/>
    <path class="cls-3" d="M434.55,240.43l-.23-.44c-.36-.67-.65-1.22-.93-1.79l-.32-.65c-.4-.81-.79-1.64-1.19-2.53-.46-1.03-.85-1.91-1.24-2.83l-7.47-18.29c-5.12-12.77-12.34-31.23-20.31-51.78-10.65,1.51-21.42,3.78-32.08,6.64l28.87,77.89c.32.1.66.16,1.01.16h31.86c1.19,0,2.29-.64,2.88-1.68.59-1.04.57-2.31-.05-3.33-.3-.51-.55-.92-.8-1.37Z"/>
  </g>
  <path class="cls-2" d="M363.57,133.53h0c69-20.34,108.35.78,135.28,18.24,29.19,18.91-45.27-27.18-136.88,5.17h0c-45.22,13.34-80.82,10.83-107.57,2.61-14.07-4.32-25.69-10.23-34.97-16.24-29.19-18.91-42.04-42.55-42.57-43.55,0,0,67.48,61.47,186.71,33.78Z"/>
  <g>
    <path class="cls-1" d="M0,288.69h8.87l17.12,34.4,17.16-34.4h8.87v59.02h-8.99v-39.46l-13.68,26.4h-6.67l-13.68-26.4v39.46H0v-59.02Z"/>
    <path class="cls-1" d="M71.21,342.19c-5.72-5.72-5.97-11.65-5.97-24s.25-18.28,5.97-24c3.81-3.81,8.79-6.01,15.29-6.01s11.44,2.2,15.25,6.01c5.72,5.72,5.97,11.65,5.97,24s-.25,18.28-5.97,24c-3.81,3.81-8.79,6.01-15.25,6.01s-11.48-2.2-15.29-6.01ZM77.93,336.76c2.28,2.28,5.18,3.44,8.58,3.44s6.26-1.16,8.54-3.44c3.4-3.4,3.69-8.33,3.69-18.57s-.29-15.17-3.69-18.57c-2.28-2.28-5.18-3.44-8.54-3.44s-6.3,1.16-8.58,3.44c-3.36,3.4-3.69,8.33-3.69,18.57s.33,15.17,3.69,18.57Z"/>
    <path class="cls-1" d="M120.97,288.69h8.17l27.23,41.49v-41.49h8.99v59.02h-8.17l-27.23-41.49v41.49h-8.99v-59.02Z"/>
    <path class="cls-1" d="M185.47,342.15c-3.61-3.56-5.64-8.49-5.64-14.3v-39.17h8.99v38.71c0,7.83,4.81,12.81,12.19,12.81s12.23-4.98,12.23-12.81v-38.71h8.99v39.17c0,5.8-2.03,10.73-5.64,14.3-3.81,3.86-9.24,6.05-15.58,6.05s-11.73-2.2-15.54-6.05Z"/>
    <path class="cls-1" d="M236.71,288.69h8.87l17.12,34.4,17.16-34.4h8.87v59.02h-8.99v-39.46l-13.68,26.4h-6.67l-13.68-26.4v39.46h-8.99v-59.02Z"/>
    <path class="cls-1" d="M304.11,288.69h37.76v8h-28.76v17.24h24.53v8.04h-24.53v17.74h28.76v8h-37.76v-59.02Z"/>
    <path class="cls-1" d="M354.03,288.69h8.17l27.23,41.49v-41.49h8.99v59.02h-8.16l-27.23-41.49v41.49h-9v-59.02Z"/>
    <path class="cls-1" d="M424.79,296.69h-16.21v-8h41.45v8h-16.25v51.02h-8.99v-51.02Z"/>
    <path class="cls-1" d="M469.45,288.69h7.17l21.64,59.02h-9.49l-4.06-11.85h-23.29l-4.1,11.85h-9.49l21.64-59.02ZM482.05,328.23l-8.99-26.15-9.04,26.15h18.03Z"/>
    <path class="cls-1" d="M506.6,288.69h9v51.02h28.39v8h-37.39v-59.02Z"/>
    <path class="cls-2" d="M106.44,370.22h5.31l21.67,59.02h-6.71l-4.68-13.31h-25.82l-4.68,13.31h-6.76l21.68-59.02ZM120.07,410.42l-10.98-31.17-10.94,31.17h21.92Z"/>
    <path class="cls-2" d="M148.77,375.86h-16.99v-5.64h40.41v5.64h-17.08v53.38h-6.34v-53.38Z"/>
    <path class="cls-2" d="M183.19,370.22h6.34v53.38h30.09v5.64h-36.43v-59.02Z"/>
    <path class="cls-2" d="M244.76,370.22h5.31l21.67,59.02h-6.71l-4.68-13.31h-25.82l-4.69,13.31h-6.76l21.68-59.02ZM258.4,410.42l-10.99-31.17-10.94,31.17h21.92Z"/>
    <path class="cls-2" d="M281.29,370.22h6.01l31.25,47.21v-47.21h6.34v59.02h-6.01l-31.25-47.21v47.21h-6.35v-59.02Z"/>
    <path class="cls-2" d="M352.88,375.86h-16.99v-5.64h40.41v5.64h-17.07v53.38h-6.34v-53.38Z"/>
    <path class="cls-2" d="M387.3,370.22h6.35v59.02h-6.35v-59.02Z"/>
    <path class="cls-2" d="M414.35,423.94c-5.56-5.56-5.88-10.69-5.88-24.21s.33-18.65,5.88-24.21c3.65-3.65,8.62-5.8,14.76-5.8,10.7,0,18.44,6.55,20.48,17.62h-6.47c-1.57-7.3-6.63-11.98-14.01-11.98-3.94,0-7.38,1.37-10.11,4.1-3.9,3.85-4.19,8.74-4.19,20.27s.29,16.41,4.19,20.27c2.73,2.73,6.17,4.1,10.11,4.1,7.38,0,12.43-4.68,14.01-11.98h6.47c-2.03,11.06-9.78,17.61-20.48,17.61-6.13,0-11.11-2.16-14.76-5.8Z"/>
  </g>
</svg>
